<svg version="1.1" id="Layer_1" xmlns="http://www.w3.org/2000/svg" xmlns:xlink="http://www.w3.org/1999/xlink" x="0px" y="0px"
	 width="100%" viewBox="0 0 512 512" enable-background="new 0 0 512 512" xml:space="preserve">
<path fill="#000000" opacity="1.000000" stroke="none" 
	d="
M243.468658,513.000000 
	C237.639160,510.502747 231.885361,508.940735 226.748901,505.884583 
	C208.102951,494.790314 197.984497,478.576477 196.633591,456.824493 
	C195.422623,437.326050 201.609344,420.835266 216.148590,407.708160 
	C226.332565,398.513275 238.241821,393.334045 252.109802,392.607422 
	C265.044312,391.929718 277.373474,393.769196 288.486389,400.696777 
	C305.967499,411.594238 315.884583,427.231445 317.362671,447.998871 
	C318.453461,463.324921 315.123688,477.422302 305.767365,489.781647 
	C297.920929,500.146484 287.614838,507.162445 275.295258,511.254364 
	C274.043396,511.670135 272.812988,512.150513 271.286316,512.800415 
	C261.979095,513.000000 252.958206,513.000000 243.468658,513.000000 
z"/>
<path fill="#000000" opacity="1.000000" stroke="none" 
	d="
M513.000000,270.531342 
	C510.520294,276.220490 509.166412,281.914429 506.167969,286.924316 
	C494.967621,305.638123 478.749146,316.038483 456.770477,317.400909 
	C441.724518,318.333618 427.960297,314.843842 416.125946,305.567017 
	C401.410828,294.031952 393.317078,278.945068 392.544128,259.868347 
	C391.931793,244.755310 395.476196,231.051834 404.878021,219.347595 
	C416.223602,205.223572 430.957581,197.340958 449.495667,196.555634 
	C468.995453,195.729568 485.311127,201.999619 498.551147,216.289139 
	C505.958527,224.283707 510.039642,233.993469 512.913208,244.675232 
	C513.000000,253.354233 513.000000,261.708466 513.000000,270.531342 
z"/>
<path fill="#000000" opacity="1.000000" stroke="none" 
	d="
M268.531342,1.000000 
	C281.552856,4.335319 292.988251,9.559095 301.852142,19.532141 
	C311.471497,30.355206 316.696686,42.753540 317.448090,57.328426 
	C318.225830,72.414062 314.737823,86.153084 305.479218,97.980835 
	C293.696991,113.032516 278.264130,121.044830 258.730133,121.478188 
	C237.030258,121.959579 219.867950,113.625557 207.332001,96.315605 
	C200.766602,87.249901 197.034058,76.861977 196.543228,65.285660 
	C195.899307,50.098495 199.086166,36.302368 208.381424,24.074148 
	C216.290436,13.669547 226.587708,6.752712 238.922165,2.735540 
	C239.867294,2.427730 240.890060,2.393760 241.796570,1.283345 
	C250.687561,1.000000 259.375122,1.000000 268.531342,1.000000 
z"/>
<path fill="#000000" opacity="1.000000" stroke="none" 
	d="
M0.999999,242.468658 
	C3.195603,237.221649 5.047410,232.246811 7.646441,227.699005 
	C18.787769,208.203857 35.389858,197.577545 58.135159,196.593658 
	C77.268349,195.765991 93.429985,201.923325 106.327507,216.027786 
	C115.714424,226.293137 120.575111,238.534073 121.406433,252.520935 
	C122.320778,267.904541 118.914536,281.995880 109.320396,294.117920 
	C97.813171,308.657166 82.895134,316.738007 63.976616,317.463318 
	C49.616127,318.013885 36.623802,314.692474 25.045938,306.260925 
	C13.789519,298.063507 6.325432,287.140228 2.558451,273.707581 
	C2.341210,272.932922 1.850243,272.235077 1.243331,271.250732 
	C1.000000,261.645782 1.000000,252.291550 0.999999,242.468658 
z"/>
<path fill="#000000" opacity="1.000000" stroke="none" 
	d="
M297.053894,234.074326 
	C295.825012,235.229355 294.803284,236.100189 293.931091,237.101303 
	C291.521362,239.867157 289.887054,239.254776 287.650238,236.517776 
	C280.842957,228.188263 273.751465,220.088272 266.678497,211.979263 
	C257.310242,201.238754 248.394333,190.032364 238.315918,179.998611 
	C221.365494,163.123352 203.910843,146.619629 179.269730,141.299942 
	C178.468201,141.126907 177.697952,140.790863 176.929199,140.489761 
	C176.321854,140.251862 175.739243,139.950790 174.554306,139.405807 
	C178.923401,131.399063 184.839035,125.079971 193.516006,123.019386 
	C213.963531,118.163551 226.592422,124.151215 237.509842,142.005875 
	C239.841125,145.818527 241.710480,149.921295 243.130539,154.212128 
	C245.372986,160.987854 250.487289,164.711578 257.180817,164.651047 
	C263.899963,164.590286 268.354309,161.088257 270.825745,154.368271 
	C274.472137,144.453430 279.674957,135.709824 287.796967,128.493591 
	C298.461365,119.018509 319.309296,119.706779 330.160492,127.883461 
	C340.850800,135.938950 345.580200,146.843887 346.399536,159.987915 
	C347.433716,176.578964 340.339722,189.751724 330.195343,202.015121 
	C321.248901,212.830353 310.515503,221.785370 300.572021,231.561829 
	C299.641174,232.477036 298.417206,233.094086 297.053894,234.074326 
z"/>
<path fill="#000000" opacity="1.000000" stroke="none" 
	d="
M298.354004,391.159119 
	C283.555786,385.739136 276.562927,373.930389 271.347137,360.620514 
	C268.128387,352.406616 264.023560,349.230164 256.352386,349.363831 
	C250.180466,349.471375 245.373962,353.059601 243.285034,359.008667 
	C239.600800,369.501007 233.899902,378.404907 225.399490,385.975952 
	C215.865875,394.467316 194.788040,394.004517 183.828949,386.238464 
	C166.754791,374.139099 163.426056,347.622559 171.985611,329.812531 
	C179.869110,313.409119 192.754623,301.189606 206.169464,289.427704 
	C210.786041,285.379974 215.356949,281.263641 219.712662,276.940826 
	C222.452042,274.222107 224.060165,274.693359 226.485901,277.513580 
	C241.819641,295.341278 256.556824,313.672455 272.830200,330.708466 
	C285.960358,344.454071 299.797607,357.109680 316.567505,366.291046 
	C323.604034,370.143494 331.469971,371.675507 338.966797,374.165741 
	C335.225128,387.605225 315.417816,395.901215 298.354004,391.159119 
z"/>
<path fill="#000000" opacity="1.000000" stroke="none" 
	d="
M169.580170,286.584351 
	C155.374725,301.861023 144.010986,318.371948 140.020721,339.833282 
	C131.385010,335.067078 125.148758,329.060822 123.061035,320.431824 
	C117.990753,299.475250 124.450836,286.974884 142.999680,275.989594 
	C146.848419,273.710266 151.012024,272.015991 155.273941,270.524292 
	C162.759140,267.904388 165.861923,263.310242 165.642990,255.959671 
	C165.463364,249.928940 161.691086,245.723557 154.817688,243.268417 
	C144.703720,239.655731 135.828873,234.366058 128.513092,226.089890 
	C119.444832,215.831223 119.256538,195.046631 127.915581,183.759583 
	C136.026672,173.186768 146.897568,168.325745 160.104080,167.561798 
	C176.300507,166.624893 189.420395,173.248032 201.402481,183.144165 
	C214.906494,194.297272 226.229706,207.563049 237.741806,220.651398 
	C239.484833,222.633057 239.315231,223.994720 237.397598,225.628464 
	C218.858810,241.422897 199.987183,256.818420 182.255630,273.569244 
	C177.906052,277.678253 174.395447,282.507263 169.580170,286.584351 
z"/>
<path fill="#000000" opacity="1.000000" stroke="none" 
	d="
M359.162628,270.729340 
	C369.334442,274.652008 377.948334,279.836273 385.364197,287.790039 
	C394.495941,297.584167 394.489929,318.966980 386.096954,330.054199 
	C377.912506,340.865967 366.923462,345.742859 353.572754,346.428406 
	C337.221680,347.267975 324.168457,340.367584 312.060120,330.269012 
	C298.849121,319.250824 287.915161,306.109406 276.396179,293.494629 
	C274.765778,291.709137 274.300659,290.212433 276.362366,288.471100 
	C291.668915,275.543182 307.344635,263.019135 322.148590,249.538269 
	C338.214844,234.907990 353.786377,219.649338 364.626862,200.423141 
	C368.231293,194.030502 370.992249,187.266220 372.527008,180.065582 
	C372.914368,178.248306 373.516052,176.610092 374.691162,174.533920 
	C384.646271,180.260345 391.228333,188.060730 392.256287,199.538712 
	C394.024323,219.280258 386.526123,228.945236 369.873474,238.419907 
	C365.012665,241.185516 359.449402,242.754410 354.704132,245.677155 
	C345.651520,251.252930 345.898956,262.668457 354.875000,268.527771 
	C356.114655,269.336945 357.485565,269.945038 359.162628,270.729340 
z"/>
<path fill="#000000" opacity="1.000000" stroke="none" 
	d="
M264.505310,262.486084 
	C263.279633,263.389893 262.266571,263.977020 261.414215,264.743011 
	C256.259888,269.375031 254.854385,269.230499 250.671295,263.532074 
	C244.988800,255.791077 244.988815,255.791061 252.496597,249.390503 
	C258.046021,244.659485 258.879730,244.735535 263.273071,250.373505 
	C263.983765,251.285538 264.556946,252.365433 265.429108,253.080658 
	C269.584412,256.488190 268.653839,259.449860 264.505310,262.486084 
z"/>
</svg>